<svg width="25" height="108" viewBox="0 0 25 108" fill="none" xmlns="http://www.w3.org/2000/svg">
<path d="M0.756348 14.7983C0.756348 14.7017 0.772461 14.6265 0.804688 14.5728C0.847656 14.519 0.869141 14.4224 0.869141 14.2827C0.869141 14.1753 0.842285 14.1001 0.788574 14.0571C0.734863 14.0142 0.648926 13.9497 0.530762 13.8638C0.498535 13.6597 0.482422 13.4609 0.482422 13.2676V12.0752C0.482422 11.957 0.482422 11.855 0.482422 11.769C0.493164 11.6831 0.509277 11.5811 0.530762 11.4629C0.605957 11.3662 0.648926 11.2964 0.659668 11.2534C0.67041 11.1997 0.675781 11.146 0.675781 11.0923L0.450195 10.3511L0.675781 9.40039C0.675781 9.27148 0.648926 9.15332 0.595215 9.0459C0.552246 8.92773 0.530762 8.81494 0.530762 8.70752C0.530762 8.62158 0.552246 8.54639 0.595215 8.48193C0.648926 8.41748 0.702637 8.35303 0.756348 8.28857C0.820801 8.22412 0.879883 8.15967 0.933594 8.09521C0.998047 8.03076 1.04102 7.95557 1.0625 7.86963L1.20752 7.354C1.35791 6.78467 1.60498 6.27979 1.94873 5.83936C2.29248 5.39893 2.70068 4.96924 3.17334 4.55029C3.18408 4.32471 3.27539 4.09912 3.44727 3.87354C3.62988 3.63721 3.8501 3.40625 4.10791 3.18066C4.37646 2.95508 4.67188 2.73486 4.99414 2.52002C5.32715 2.30518 5.65479 2.10645 5.97705 1.92383C6.31006 1.74121 6.62158 1.58008 6.91162 1.44043C7.20166 1.29004 7.44336 1.17187 7.63672 1.08594C7.88379 0.989258 8.13623 0.919434 8.39404 0.876465C8.65186 0.822754 8.92041 0.736816 9.19971 0.618652C9.29639 0.597168 9.48438 0.570312 9.76367 0.538086C10.043 0.505859 10.3384 0.468262 10.6499 0.425293C10.9722 0.382324 11.2783 0.344727 11.5684 0.3125C11.8584 0.280273 12.0625 0.253418 12.1807 0.231934C12.3311 0.242676 12.4653 0.253418 12.5835 0.26416C12.7124 0.274902 12.8413 0.280273 12.9702 0.280273H14.5332C14.6729 0.280273 14.8125 0.280273 14.9521 0.280273C15.1025 0.280273 15.2422 0.291016 15.3711 0.3125C15.5 0.387695 15.6826 0.473633 15.9189 0.570312C16.1553 0.65625 16.4077 0.736816 16.6763 0.812012C16.9448 0.887207 17.208 0.95166 17.4658 1.00537C17.7236 1.05908 17.9331 1.08594 18.0942 1.08594C18.3198 1.08594 18.4971 1.0376 18.626 0.940918C18.7549 0.833496 18.8677 0.715332 18.9644 0.586426C19.0718 0.45752 19.1792 0.344727 19.2866 0.248047C19.394 0.140625 19.5444 0.0869141 19.7378 0.0869141C19.8774 0.0869141 19.9956 0.124512 20.0923 0.199707C20.189 0.26416 20.2642 0.350098 20.3179 0.45752C20.3823 0.564941 20.4253 0.677734 20.4468 0.795898C20.479 0.90332 20.4951 1 20.4951 1.08594L20.5757 2.79395C20.6187 2.87988 20.6509 2.96045 20.6724 3.03564C20.7046 3.1001 20.7207 3.15918 20.7207 3.21289C20.7207 3.40625 20.7368 3.53516 20.769 3.59961C20.769 3.6748 20.7798 3.7876 20.8013 3.93799C20.8335 4.07764 20.8657 4.22266 20.8979 4.37305C20.9302 4.5127 20.957 4.6416 20.9785 4.75977C21.0107 4.86719 21.0269 4.92627 21.0269 4.93701C21.0483 5.10889 21.0806 5.25391 21.1235 5.37207C21.1665 5.49023 21.2095 5.6084 21.2524 5.72656C21.3062 5.83398 21.3491 5.94678 21.3813 6.06494C21.4243 6.18311 21.4458 6.32812 21.4458 6.5C21.4458 6.53223 21.4243 6.5752 21.3813 6.62891C21.3384 6.67188 21.2847 6.71484 21.2202 6.75781C21.1665 6.80078 21.1074 6.83838 21.043 6.87061C20.9893 6.90283 20.9463 6.91895 20.9141 6.91895C20.6562 6.91895 20.4092 6.83838 20.1729 6.67725C19.9365 6.50537 19.7217 6.2959 19.5283 6.04883C19.335 5.80176 19.1577 5.54395 18.9966 5.27539C18.8462 5.00684 18.7227 4.76514 18.626 4.55029L18.5132 4.35693L18.4326 3.93799L17.9009 3.43848C17.8687 3.40625 17.8203 3.35791 17.7559 3.29346C17.7021 3.21826 17.6431 3.1377 17.5786 3.05176C17.5142 2.95508 17.4497 2.86377 17.3853 2.77783C17.3208 2.69189 17.2671 2.62207 17.2241 2.56836C17.106 2.39648 16.9502 2.26758 16.7568 2.18164C16.5635 2.08496 16.354 2.00977 16.1284 1.95605C15.9136 1.90234 15.6934 1.854 15.4678 1.81104C15.2422 1.76807 15.0381 1.70361 14.8555 1.61768C14.7051 1.54248 14.5708 1.47266 14.4526 1.4082C14.3452 1.34375 14.2378 1.29004 14.1304 1.24707C14.0229 1.19336 13.9048 1.15576 13.7759 1.13428C13.647 1.10205 13.4858 1.08594 13.2925 1.08594C13.0454 1.08594 12.8037 1.15039 12.5674 1.2793C12.3418 1.4082 12.1055 1.49414 11.8584 1.53711L10.7144 1.61768C10.2202 1.70361 9.75293 1.87012 9.3125 2.11719C8.87207 2.36426 8.45312 2.65967 8.05566 3.00342C7.66895 3.33643 7.29834 3.69629 6.94385 4.08301C6.58936 4.46973 6.25635 4.8457 5.94482 5.21094C5.84814 5.33984 5.78906 5.50098 5.76758 5.69434C5.74609 5.87695 5.7085 6.05957 5.65479 6.24219C5.56885 6.47852 5.45068 6.72021 5.30029 6.96729C5.1499 7.20361 4.99951 7.45068 4.84912 7.7085C4.70947 7.95557 4.58057 8.20801 4.4624 8.46582C4.35498 8.71289 4.30127 8.96533 4.30127 9.22314C4.30127 9.27686 4.30664 9.37891 4.31738 9.5293C4.33887 9.66895 4.35498 9.83545 4.36572 10.0288C4.37646 10.2114 4.38721 10.4155 4.39795 10.6411C4.40869 10.856 4.41406 11.0654 4.41406 11.2695L4.38184 11.8174L4.62354 12.2041V13.1064C4.67725 13.6865 4.74707 14.2451 4.83301 14.7822C4.91895 15.3193 5.10156 15.8457 5.38086 16.3613C5.49902 16.5762 5.6333 16.7642 5.78369 16.9253C5.93408 17.0864 6.08447 17.2476 6.23486 17.4087C6.38525 17.5698 6.53564 17.7363 6.68604 17.9082C6.83643 18.0801 6.97607 18.2734 7.10498 18.4883C7.15869 18.585 7.24463 18.6387 7.36279 18.6494C7.4917 18.6602 7.60986 18.7192 7.71729 18.8267C8.23291 19.5786 8.83984 20.1533 9.53809 20.5508C10.2471 20.9375 11.0205 21.2437 11.8584 21.4692C12.0732 21.5122 12.2505 21.5713 12.3901 21.6465C12.5405 21.7109 12.707 21.7432 12.8896 21.7432C12.9756 21.7432 13.0776 21.7271 13.1958 21.6948L13.3892 21.6304C13.4536 21.6304 13.5557 21.625 13.6953 21.6143C13.8457 21.6035 14.0015 21.5928 14.1626 21.582C14.3345 21.5605 14.4956 21.5391 14.646 21.5176C14.8071 21.4961 14.9253 21.48 15.0005 21.4692C15.0112 21.4692 15.0811 21.4263 15.21 21.3403C15.3496 21.2544 15.5161 21.147 15.7095 21.0181C15.9136 20.8892 16.1284 20.7495 16.354 20.5991C16.5796 20.438 16.7891 20.293 16.9824 20.1641C17.1865 20.0244 17.3584 19.9009 17.498 19.7935C17.6377 19.686 17.7236 19.6216 17.7559 19.6001V19.1006L17.6753 18.1499C17.6753 17.9243 17.686 17.7148 17.7075 17.5215C17.7397 17.3281 17.7559 17.1562 17.7559 17.0059V16.6675L17.5947 16.3613V15.5557C17.5732 15.3623 17.5142 15.2065 17.4175 15.0884C17.3315 14.9595 17.2295 14.8413 17.1113 14.7339C17.0039 14.6265 16.9019 14.519 16.8052 14.4116C16.7192 14.3042 16.6655 14.1753 16.644 14.0249V13.5254L16.5635 13.0742C16.585 12.9775 16.6494 12.9023 16.7568 12.8486C16.875 12.7949 17.0093 12.752 17.1597 12.7197C17.3208 12.6875 17.4927 12.6714 17.6753 12.6714C17.8579 12.6606 18.0244 12.6553 18.1748 12.6553H18.7065L19.8828 12.8486C20.1299 12.8486 20.3662 12.8325 20.5918 12.8003C20.8174 12.7681 21.0161 12.7305 21.188 12.6875L21.2686 12.6553H24.2012C24.2334 12.6553 24.2925 12.666 24.3784 12.6875C24.4644 12.709 24.5503 12.7412 24.6362 12.7842C24.7222 12.8271 24.7974 12.8809 24.8618 12.9453C24.9263 13.0098 24.9585 13.0796 24.9585 13.1548C24.9585 13.3804 24.8511 13.5576 24.6362 13.6865C24.4321 13.8154 24.1904 13.9175 23.9111 13.9927C23.6426 14.0679 23.374 14.1323 23.1055 14.186C22.8477 14.2397 22.665 14.3042 22.5576 14.3794L21.6069 15.5557C21.6499 15.6523 21.6982 15.7759 21.752 15.9263C21.8057 16.0659 21.8325 16.2109 21.8325 16.3613L21.6069 18.1499C21.6069 18.3218 21.6445 18.4507 21.7197 18.5366C21.7949 18.6226 21.8325 18.7192 21.8325 18.8267C21.8325 19.0737 21.811 19.3369 21.7681 19.6162C21.7358 19.8955 21.6714 20.1641 21.5747 20.4219C21.478 20.6689 21.3438 20.8892 21.1719 21.0825C21 21.2759 20.7744 21.4048 20.4951 21.4692L19.625 21.5498C19.4746 21.5713 19.2974 21.6357 19.0933 21.7432C18.8999 21.8398 18.6958 21.958 18.481 22.0977C18.2769 22.2266 18.0781 22.3608 17.8848 22.5005C17.7021 22.6294 17.541 22.7314 17.4014 22.8066C17.2725 22.8818 17.1382 22.9248 16.9985 22.9355C16.8589 22.9463 16.7407 22.9517 16.644 22.9517H16.064C15.8384 22.9517 15.6343 22.9624 15.4517 22.9839C15.2798 23.0054 15.0811 23.0645 14.8555 23.1611H12.1807C11.708 23.0537 11.2085 23 10.6821 23C10.4351 23 10.188 22.9946 9.94092 22.9839C9.69385 22.9731 9.44678 22.9624 9.19971 22.9517C9.08154 22.9517 8.98486 22.9302 8.90967 22.8872C8.84521 22.8335 8.78076 22.7798 8.71631 22.7261C8.6626 22.6616 8.60352 22.6025 8.53906 22.5488C8.48535 22.4844 8.4209 22.4414 8.3457 22.4199C8.31348 22.3877 8.23291 22.3501 8.104 22.3071C7.98584 22.2534 7.85693 22.2051 7.71729 22.1621C7.57764 22.1191 7.44336 22.0815 7.31445 22.0493C7.19629 22.0171 7.12646 22.001 7.10498 22.001L6.07373 21.4692C6.00928 21.4692 5.90186 21.4478 5.75146 21.4048C5.61182 21.3511 5.49902 21.3242 5.41309 21.3242C5.2627 21.292 5.05859 21.1631 4.80078 20.9375C4.55371 20.7119 4.29053 20.4595 4.01123 20.1802C3.74268 19.9009 3.49023 19.6216 3.25391 19.3423C3.02832 19.063 2.86719 18.8589 2.77051 18.73C2.77051 18.687 2.72217 18.6064 2.62549 18.4883C2.52881 18.3594 2.45361 18.2734 2.3999 18.2305L2.23877 17.8115C2.21729 17.7793 2.16895 17.7363 2.09375 17.6826C2.01855 17.6289 1.93799 17.5698 1.85205 17.5054C1.77686 17.4409 1.70703 17.3818 1.64258 17.3281C1.58887 17.2744 1.56201 17.2314 1.56201 17.1992L1.40088 16.168C1.36865 16.0605 1.31494 15.9531 1.23975 15.8457C1.17529 15.7383 1.10547 15.6309 1.03027 15.5234C0.96582 15.416 0.901367 15.3032 0.836914 15.1851C0.783203 15.0669 0.756348 14.938 0.756348 14.7983Z" fill="#930000"/>
<path d="M0.385742 64.4683V64.3877C0.417969 64.3555 0.503906 64.3125 0.643555 64.2588C0.783203 64.1943 0.949707 64.1299 1.14307 64.0654C1.33643 64.001 1.54053 63.9365 1.75537 63.8721C1.97021 63.8076 2.17432 63.7485 2.36768 63.6948C2.56104 63.6411 2.72217 63.5928 2.85107 63.5498C2.99072 63.5068 3.07129 63.48 3.09277 63.4692C3.28613 63.2007 3.43115 62.9268 3.52783 62.6475C3.62451 62.3574 3.69434 62.0674 3.7373 61.7773C3.78027 61.4766 3.80713 61.1758 3.81787 60.875C3.83936 60.5635 3.86621 60.2466 3.89844 59.9243C3.97363 59.6772 4.03271 59.4409 4.07568 59.2153C4.12939 58.9897 4.15625 58.7534 4.15625 58.5063C4.15625 58.3237 4.11328 58.1626 4.02734 58.0229C3.94141 57.8833 3.89844 57.7275 3.89844 57.5557C3.89844 57.2764 3.94141 56.9971 4.02734 56.7178C4.11328 56.4277 4.15625 56.1592 4.15625 55.9121C4.15625 55.8262 4.15088 55.7563 4.14014 55.7026C4.12939 55.6382 4.11328 55.5791 4.0918 55.5254C4.08105 55.4717 4.07031 55.418 4.05957 55.3643C4.04883 55.3105 4.04346 55.2407 4.04346 55.1548C4.04346 55.0474 4.0542 54.9561 4.07568 54.8809C4.10791 54.7949 4.14014 54.7197 4.17236 54.6553C4.21533 54.5801 4.24756 54.5103 4.26904 54.4458C4.30127 54.3706 4.31738 54.29 4.31738 54.2041L3.89844 52.5605C3.89844 52.3994 3.94141 52.2651 4.02734 52.1577C4.11328 52.0396 4.15625 51.8892 4.15625 51.7065L4.04346 51.2231V50.1919C4.04346 50.1597 4.03271 50.1167 4.01123 50.063C3.98975 49.9985 3.96289 49.9341 3.93066 49.8696C3.89844 49.8052 3.87158 49.7461 3.8501 49.6924C3.82861 49.6387 3.81787 49.6011 3.81787 49.5796C3.81787 49.3003 3.84473 49.0532 3.89844 48.8384C3.95215 48.6235 3.979 48.4087 3.979 48.1938L3.89844 45.6318C3.84473 45.5244 3.78564 45.4385 3.72119 45.374C3.65674 45.3096 3.58691 45.2559 3.51172 45.2129C3.43652 45.1699 3.35059 45.127 3.25391 45.084C3.16797 45.0303 3.07666 44.9604 2.97998 44.8745C2.79736 44.606 2.55566 44.4233 2.25488 44.3267C1.9541 44.23 1.65869 44.1548 1.36865 44.1011C1.07861 44.0366 0.826172 43.9561 0.611328 43.8594C0.407227 43.7627 0.305176 43.5801 0.305176 43.3115C0.305176 43.1182 0.380371 42.9731 0.530762 42.8765C0.691895 42.769 0.879883 42.6938 1.09473 42.6509C1.30957 42.5972 1.52441 42.5649 1.73926 42.5542C1.9541 42.5435 2.12598 42.5381 2.25488 42.5381H2.83496C3.02832 42.5381 3.23779 42.5435 3.46338 42.5542C3.68896 42.5542 3.89844 42.5649 4.0918 42.5864C4.2959 42.5972 4.46777 42.6187 4.60742 42.6509C4.74707 42.6724 4.82764 42.6992 4.84912 42.7314L10.0537 42.5381L11.375 42.6187L12.0356 42.5381C12.4224 42.6992 12.8037 42.8281 13.1797 42.9248C13.5557 43.0215 13.9155 43.1343 14.2593 43.2632C14.6138 43.3921 14.9468 43.5586 15.2583 43.7627C15.5806 43.9561 15.8706 44.2354 16.1284 44.6006C16.3647 44.9443 16.5635 45.2451 16.7246 45.5029C16.8965 45.75 17.0361 46.0024 17.1436 46.2603C17.251 46.5073 17.3262 46.7759 17.3691 47.0659C17.4229 47.356 17.4497 47.7051 17.4497 48.1133C17.4497 48.4248 17.4121 48.7739 17.3369 49.1606C17.2617 49.5366 17.1489 49.8804 16.9985 50.1919C16.8804 50.3745 16.7568 50.5249 16.6279 50.6431C16.5098 50.7612 16.3809 50.8687 16.2412 50.9653C16.1016 51.062 15.9512 51.1533 15.79 51.2393C15.6396 51.3252 15.4785 51.4219 15.3066 51.5293L15.1294 51.8677C15.0542 51.9644 14.9146 52.0342 14.7104 52.0771C14.5171 52.1201 14.3184 52.1685 14.1143 52.2222C13.9102 52.2759 13.7275 52.3511 13.5664 52.4478C13.4053 52.5444 13.3247 52.6948 13.3247 52.8989C13.3247 52.9956 13.4214 53.0815 13.6147 53.1567C13.8081 53.2319 14.0283 53.3018 14.2754 53.3662C14.5332 53.4307 14.7803 53.4897 15.0166 53.5435C15.2637 53.5972 15.4409 53.6455 15.5483 53.6885C15.8599 53.8496 16.1338 54.0161 16.3701 54.188C16.6172 54.3491 16.8804 54.5156 17.1597 54.6875L17.6914 55.042C17.8418 55.332 18.019 55.6274 18.2231 55.9282C18.4272 56.229 18.6206 56.5405 18.8032 56.8628C18.9966 57.1743 19.1577 57.502 19.2866 57.8457C19.4155 58.1787 19.48 58.5278 19.48 58.8931C19.48 59.2905 19.4639 59.6665 19.4316 60.021C19.4102 60.3755 19.3242 60.687 19.1738 60.9556C19.1201 61.0522 19.0181 61.1919 18.8677 61.3745C18.7173 61.5464 18.54 61.7451 18.3359 61.9707C18.1426 62.1855 17.9277 62.4111 17.6914 62.6475C17.4658 62.8838 17.2456 63.104 17.0308 63.3081C16.8159 63.5015 16.6118 63.6733 16.4185 63.8237C16.2358 63.9634 16.0854 64.0493 15.9673 64.0815C15.5913 64.0815 15.3335 64.1084 15.1938 64.1621C15.0542 64.2051 14.9575 64.2266 14.9038 64.2266C14.3345 64.4092 13.8188 64.5596 13.3569 64.6777C12.895 64.7959 12.3794 64.8765 11.8101 64.9194L11.085 65.1611C10.7949 65.0537 10.4995 65 10.1987 65C9.8335 65 9.50586 65.0537 9.21582 65.1611C8.59277 65.1074 7.98047 65.0591 7.37891 65.0161C6.77734 64.9731 6.14893 64.9517 5.49365 64.9517C4.97803 64.9517 4.45166 65 3.91455 65.0967C3.38818 65.2041 2.83496 65.2578 2.25488 65.2578C2.20117 65.2578 2.07227 65.2417 1.86816 65.2095C1.6748 65.188 1.46533 65.145 1.23975 65.0806C1.0249 65.0161 0.826172 64.9355 0.643555 64.8389C0.47168 64.7314 0.385742 64.6079 0.385742 64.4683ZM7.13721 60.1177L7.36279 60.875C7.39502 61.2939 7.4165 61.6216 7.42725 61.8579C7.43799 62.0835 7.46484 62.2661 7.50781 62.4058C7.56152 62.5347 7.65283 62.6475 7.78174 62.7441C7.91064 62.8301 8.11475 62.9429 8.39404 63.0825C8.50146 63.1362 8.5874 63.1846 8.65186 63.2275C8.71631 63.2705 8.78613 63.3135 8.86133 63.3564C9.08691 63.4531 9.30176 63.5659 9.50586 63.6948C9.7207 63.8237 9.96777 63.8882 10.2471 63.8882C10.4512 63.8882 10.6123 63.856 10.7305 63.7915C10.8594 63.7271 11.0098 63.6948 11.1816 63.6948L11.9229 63.7754C12.0518 63.7754 12.1914 63.7432 12.3418 63.6787C12.5029 63.6143 12.6587 63.5337 12.8091 63.437C12.9595 63.3403 13.0991 63.2383 13.228 63.1309C13.3677 63.0234 13.4805 62.9214 13.5664 62.8247C13.6201 62.8032 13.6953 62.7495 13.792 62.6636C13.8994 62.5669 14.0068 62.4648 14.1143 62.3574C14.2217 62.25 14.3184 62.1479 14.4043 62.0513C14.501 61.9438 14.5762 61.8687 14.6299 61.8257C14.6729 61.6753 14.7373 61.5303 14.8232 61.3906C14.9199 61.251 15.0059 61.1113 15.0811 60.9717C15.167 60.8213 15.2422 60.6709 15.3066 60.5205C15.3711 60.3594 15.4033 60.1875 15.4033 60.0049C15.4033 59.5322 15.3818 59.0596 15.3389 58.5869C15.3066 58.1035 15.2314 57.6416 15.1133 57.2012C14.9951 56.75 14.8232 56.3257 14.5977 55.9282C14.3828 55.52 14.0874 55.1602 13.7114 54.8486C13.3677 54.6016 13.0293 54.4028 12.6963 54.2524C12.374 54.0913 12.0034 53.9839 11.5845 53.9302H10.7627C10.3223 53.8872 9.9248 53.8228 9.57031 53.7368C9.21582 53.6401 8.85596 53.5918 8.49072 53.5918L7.55615 53.6885C7.53467 53.7314 7.50244 53.7959 7.45947 53.8818C7.42725 53.957 7.38965 54.043 7.34668 54.1396C7.31445 54.2256 7.27686 54.3062 7.23389 54.3813C7.20166 54.4565 7.16943 54.5103 7.13721 54.5425C7.13721 54.7144 7.15332 54.854 7.18555 54.9614C7.22852 55.0581 7.25 55.1709 7.25 55.2998L7.02441 57.5557C7.02441 57.8457 7.06201 58.1572 7.13721 58.4902C7.2124 58.8232 7.25 59.1724 7.25 59.5376L7.13721 60.1177ZM7.45947 52.7378L7.66895 53.0117L8.5874 52.7056C8.96338 52.6626 9.35547 52.625 9.76367 52.5928C10.1826 52.5605 10.5854 52.5444 10.9722 52.5444C11.1763 52.5444 11.3159 52.5444 11.3911 52.5444C11.4663 52.5444 11.5308 52.5498 11.5845 52.5605C11.896 52.3027 12.1753 52.0127 12.4224 51.6904C12.6802 51.3574 12.9058 51.0137 13.0991 50.6592C13.3032 50.3047 13.4858 49.9395 13.647 49.5635C13.8081 49.1875 13.9585 48.8223 14.0981 48.4678V48.1938L13.8726 47.7749C13.7651 47.3882 13.6309 47.0015 13.4697 46.6147C13.3086 46.228 13.1045 45.8735 12.8574 45.5513C12.6211 45.229 12.3364 44.9604 12.0034 44.7456C11.6812 44.52 11.2998 44.3857 10.8594 44.3428C10.8379 44.3428 10.7896 44.3374 10.7144 44.3267C10.6499 44.3159 10.5801 44.3105 10.5049 44.3105C10.4297 44.2998 10.3599 44.2891 10.2954 44.2783C10.231 44.2676 10.188 44.2622 10.1665 44.2622C10.0269 44.2407 9.89258 44.1978 9.76367 44.1333C9.64551 44.0688 9.52734 43.999 9.40918 43.9238C9.29102 43.8486 9.16211 43.7842 9.02246 43.7305C8.89355 43.6768 8.75391 43.6499 8.60352 43.6499C8.52832 43.6499 8.41553 43.6875 8.26514 43.7627C8.12549 43.8379 7.98047 43.9346 7.83008 44.0527C7.69043 44.1602 7.56152 44.2729 7.44336 44.3911C7.33594 44.5093 7.27148 44.6167 7.25 44.7134V45.374L7.36279 46.6631C7.36279 46.835 7.34131 47.0176 7.29834 47.2109C7.26611 47.3936 7.22852 47.5815 7.18555 47.7749C7.15332 47.9575 7.11572 48.1401 7.07275 48.3228C7.04053 48.4946 7.02441 48.6558 7.02441 48.8062C7.02441 49.5044 7.0835 50.1812 7.20166 50.8364C7.31982 51.4917 7.40576 52.1255 7.45947 52.7378Z" fill="#AE0606"/>
<path d="M0.740234 98.4761C0.740234 98.4438 0.729492 98.3955 0.708008 98.3311C0.697266 98.2666 0.681152 98.2021 0.659668 98.1377C0.648926 98.0625 0.632812 97.998 0.611328 97.9443C0.600586 97.8799 0.595215 97.8315 0.595215 97.7993C0.57373 97.7241 0.562988 97.665 0.562988 97.6221C0.562988 97.5791 0.562988 97.5361 0.562988 97.4932C0.562988 97.4072 0.57373 97.3374 0.595215 97.2837C0.616699 97.23 0.654297 97.1494 0.708008 97.042L0.514648 93.8193L0.595215 92.917C0.616699 92.8848 0.638184 92.8472 0.659668 92.8042C0.681152 92.772 0.697266 92.7451 0.708008 92.7236C0.71875 92.6914 0.729492 92.6646 0.740234 92.6431C0.836914 92.4175 0.912109 92.2026 0.96582 91.9985C1.01953 91.7944 1.08398 91.5796 1.15918 91.354C1.21289 91.1392 1.23975 90.9351 1.23975 90.7417C1.23975 90.5054 1.28271 90.312 1.36865 90.1616C1.5083 89.8394 1.66406 89.5332 1.83594 89.2432C2.01855 88.9424 2.23877 88.5933 2.49658 88.1958C2.51807 88.1636 2.53955 88.1313 2.56104 88.0991C2.58252 88.0562 2.604 88.0186 2.62549 87.9863C2.72217 87.8467 2.82422 87.6909 2.93164 87.519C3.0498 87.3472 3.11426 87.2505 3.125 87.229C3.25391 87.0356 3.37744 86.8906 3.49561 86.7939C3.62451 86.6973 3.7749 86.5684 3.94678 86.4072C4.31201 86.1279 4.63428 85.8701 4.91357 85.6338C5.19287 85.3975 5.52588 85.1611 5.9126 84.9248L6.31543 84.7476C6.41211 84.7153 6.51953 84.6724 6.6377 84.6187C6.75586 84.5542 6.87939 84.4897 7.0083 84.4253C7.13721 84.3608 7.26074 84.3018 7.37891 84.248C7.49707 84.1943 7.60449 84.1514 7.70117 84.1191L9.34473 83.8936C9.3877 83.8936 9.45752 83.8774 9.5542 83.8452C9.65088 83.813 9.7207 83.77 9.76367 83.7163C10.2256 83.7056 10.5962 83.6948 10.8755 83.6841C11.1548 83.6733 11.418 83.668 11.665 83.668C11.998 83.668 12.3257 83.6733 12.6479 83.6841C12.9702 83.6948 13.2925 83.7056 13.6147 83.7163C13.8188 83.77 13.9854 83.813 14.1143 83.8452C14.2432 83.8667 14.3452 83.8882 14.4204 83.9097C14.4956 83.9204 14.5493 83.9258 14.5815 83.9258C14.6138 83.9258 14.646 83.9258 14.6782 83.9258C14.8071 83.915 14.9092 83.9097 14.9844 83.9097C15.0703 83.8989 15.1455 83.8936 15.21 83.8936C15.2852 83.8936 15.3657 83.8936 15.4517 83.8936C15.5376 83.8936 15.6504 83.8936 15.79 83.8936C15.9082 83.958 16.0371 84.0493 16.1768 84.1675C16.3164 84.2856 16.4453 84.3447 16.5635 84.3447C16.6064 84.3447 16.6494 84.3286 16.6924 84.2964C16.7354 84.2642 16.7676 84.248 16.7891 84.248H17.7397C17.8794 84.2266 18.0083 84.1836 18.1265 84.1191C18.2554 84.0439 18.3789 83.9688 18.4971 83.8936C18.626 83.8076 18.7495 83.7378 18.8677 83.6841C18.9858 83.6196 19.1201 83.5874 19.2705 83.5874C19.4531 83.5874 19.6089 83.6465 19.7378 83.7646C19.8774 83.8721 19.9473 84.0332 19.9473 84.248V86.9229C19.958 86.9766 19.9741 87.0625 19.9956 87.1807C20.0171 87.2988 20.0278 87.3848 20.0278 87.4385C20.1245 87.9541 20.2373 88.4858 20.3662 89.0337C20.4951 89.5708 20.5596 90.0972 20.5596 90.6128C20.5488 90.6772 20.522 90.7471 20.479 90.8223C20.436 90.8975 20.3823 90.9673 20.3179 91.0317C20.2642 91.0962 20.2104 91.1553 20.1567 91.209C20.103 91.252 20.0601 91.2734 20.0278 91.2734C20.0278 91.2949 19.9902 91.3057 19.915 91.3057C19.7002 91.3057 19.5122 91.2573 19.3511 91.1606C19.2007 91.064 19.0718 90.9404 18.9644 90.79C18.8569 90.6396 18.7764 90.4785 18.7227 90.3066C18.6689 90.1348 18.6313 89.9736 18.6099 89.8232V89.2915C18.5884 89.1411 18.5562 89.0229 18.5132 88.937C18.481 88.8403 18.438 88.7598 18.3843 88.6953C18.3306 88.6201 18.2661 88.5449 18.1909 88.4697C18.1265 88.3945 18.0513 88.2979 17.9653 88.1797C17.8472 88.0615 17.7773 87.9326 17.7559 87.793C17.7344 87.6426 17.6753 87.4922 17.5786 87.3418C17.5571 87.2988 17.5088 87.2559 17.4336 87.2129C17.3584 87.1699 17.3101 87.1484 17.2886 87.1484L16.2573 86.4072C16.2573 86.3965 16.2305 86.3696 16.1768 86.3267C16.1338 86.2729 16.0854 86.2192 16.0317 86.1655C15.978 86.1011 15.9243 86.042 15.8706 85.9883C15.8276 85.9346 15.8008 85.897 15.79 85.8755C15.6719 85.811 15.6074 85.7788 15.5967 85.7788C15.5752 85.8003 15.5 85.811 15.3711 85.811C15.2959 85.811 15.2583 85.8003 15.2583 85.7788C15.0327 85.7358 14.8125 85.666 14.5977 85.5693C14.3936 85.4727 14.2056 85.376 14.0337 85.2793L12.084 85.1987C12.0088 85.1128 11.9336 85.0591 11.8584 85.0376C11.7832 85.0161 11.6919 85.0054 11.5845 85.0054C11.2192 85.0054 10.9077 85.0376 10.6499 85.1021C10.3921 85.1665 10.1558 85.2578 9.94092 85.376C9.93018 85.3975 9.91943 85.4136 9.90869 85.4243C9.88721 85.4458 9.86572 85.4565 9.84424 85.4565C9.69385 85.5747 9.52734 85.666 9.34473 85.7305C9.17285 85.7949 8.99561 85.8594 8.81299 85.9238C8.63037 85.9775 8.44775 86.042 8.26514 86.1172C8.09326 86.1816 7.93213 86.2783 7.78174 86.4072L7.16943 86.9229C7.15869 86.9443 7.10498 86.9927 7.0083 87.0679C6.91162 87.1323 6.85791 87.186 6.84717 87.229C6.79346 87.3472 6.70215 87.46 6.57324 87.5674C6.44434 87.6641 6.3584 87.7231 6.31543 87.7446C6.22949 87.8628 6.16504 87.9917 6.12207 88.1313C6.08984 88.2603 6.05225 88.3354 6.00928 88.3569L5.63867 88.8887L5.1875 89.9199L4.97803 90.8545C4.96729 90.876 4.94043 90.9136 4.89746 90.9673C4.86523 91.021 4.82227 91.0801 4.76855 91.1445C4.72559 91.1982 4.67725 91.2466 4.62354 91.2896C4.58057 91.3325 4.54834 91.354 4.52686 91.354C4.52686 91.3647 4.52148 91.4077 4.51074 91.4829C4.5 91.5581 4.48926 91.6494 4.47852 91.7568C4.47852 91.8535 4.47314 91.9556 4.4624 92.063C4.45166 92.1597 4.44629 92.2349 4.44629 92.2886V92.7236L4.52686 94.3672L4.72021 95.1567L4.52686 96.043C4.52686 96.5586 4.59668 97.0742 4.73633 97.5898C4.87598 98.1055 5.02637 98.605 5.1875 99.0884C5.20898 99.0991 5.30566 99.228 5.47754 99.4751L5.63867 99.9263C5.6709 100.012 5.71924 100.098 5.78369 100.184C5.84814 100.259 5.91797 100.334 5.99316 100.41C6.0791 100.485 6.15967 100.555 6.23486 100.619C6.31006 100.684 6.37451 100.748 6.42822 100.812C6.48193 101.006 6.51953 101.14 6.54102 101.215C6.5625 101.291 6.58398 101.344 6.60547 101.376C6.62695 101.398 6.65381 101.419 6.68604 101.441C6.71826 101.452 6.77197 101.495 6.84717 101.57C6.92236 101.602 6.98145 101.656 7.02441 101.731C7.07812 101.795 7.12646 101.871 7.16943 101.957C7.2124 102.042 7.25537 102.128 7.29834 102.214C7.34131 102.3 7.40039 102.37 7.47559 102.424C7.67969 102.456 7.85156 102.478 7.99121 102.488C8.1416 102.488 8.27588 102.553 8.39404 102.682C8.65186 102.896 8.89355 103.084 9.11914 103.246C9.34473 103.396 9.57031 103.53 9.7959 103.648C10.0322 103.756 10.2793 103.853 10.5371 103.938C10.7949 104.014 11.085 104.078 11.4072 104.132L12.2451 104.374C12.5244 104.374 12.75 104.336 12.9219 104.261C13.1045 104.175 13.2817 104.132 13.4536 104.132C13.6147 104.132 13.7651 104.191 13.9048 104.309C14.0444 104.417 14.2002 104.47 14.3721 104.47C14.5117 104.47 14.6245 104.427 14.7104 104.341C14.8071 104.245 14.9253 104.175 15.0649 104.132C15.0864 104.132 15.1509 104.121 15.2583 104.1C15.3765 104.078 15.4517 104.062 15.4839 104.051C15.5269 104.051 15.5967 104.024 15.6934 103.971C15.79 103.917 15.8599 103.869 15.9028 103.826C16.2681 103.772 16.499 103.729 16.5957 103.697C16.7031 103.654 16.7676 103.632 16.7891 103.632C16.7998 103.622 16.8267 103.6 16.8696 103.568C16.9126 103.525 16.9556 103.482 16.9985 103.439C17.0522 103.385 17.1006 103.337 17.1436 103.294C17.1865 103.24 17.2188 103.203 17.2402 103.181C17.2832 103.181 17.353 103.154 17.4497 103.101C17.5464 103.047 17.6484 102.982 17.7559 102.907C17.874 102.832 17.9868 102.757 18.0942 102.682C18.2124 102.606 18.3091 102.547 18.3843 102.504C18.438 102.472 18.4756 102.435 18.4971 102.392C18.5186 102.338 18.5562 102.284 18.6099 102.23C18.771 102.005 18.9321 101.838 19.0933 101.731C19.2544 101.624 19.4263 101.457 19.6089 101.231C19.6519 101.188 19.7109 101.124 19.7861 101.038C19.8721 100.941 19.9258 100.866 19.9473 100.812C19.958 100.791 19.9795 100.727 20.0117 100.619C20.0547 100.501 20.0977 100.437 20.1406 100.426C20.2803 100.308 20.4146 100.227 20.5435 100.184C20.6724 100.141 20.8066 100.12 20.9463 100.12C21.0215 100.12 21.0859 100.152 21.1396 100.216C21.2041 100.281 21.2524 100.356 21.2847 100.442C21.3276 100.528 21.3599 100.625 21.3813 100.732C21.4028 100.829 21.4136 100.909 21.4136 100.974C21.4136 101.188 21.3652 101.382 21.2686 101.554C21.1719 101.715 21.0645 101.871 20.9463 102.021C20.8281 102.171 20.71 102.327 20.5918 102.488C20.4844 102.639 20.4092 102.816 20.3662 103.02C20.3232 103.052 20.2534 103.111 20.1567 103.197C20.0601 103.272 19.9634 103.358 19.8667 103.455C19.77 103.552 19.6787 103.648 19.5928 103.745C19.5068 103.831 19.4531 103.896 19.4316 103.938C19.1953 104.25 18.9805 104.47 18.7871 104.599C18.5938 104.717 18.4111 104.841 18.2393 104.97C18.1641 105.066 18.105 105.168 18.062 105.276C18.0298 105.373 17.9492 105.448 17.8203 105.501C17.6699 105.587 17.498 105.668 17.3047 105.743C17.1221 105.808 16.9233 105.867 16.7085 105.92C16.3647 106.135 16.0586 106.28 15.79 106.355C15.5215 106.431 15.2422 106.517 14.9521 106.613L14.3076 106.968C13.7383 107 13.3462 107.043 13.1313 107.097C12.9165 107.161 12.7876 107.193 12.7446 107.193C12.4009 107.183 12.1646 107.15 12.0356 107.097C11.9175 107.054 11.8369 107.032 11.7939 107.032L10.7949 107.354C10.6768 107.344 10.5479 107.333 10.4082 107.322C10.2793 107.312 10.1504 107.295 10.0215 107.274C9.89258 107.263 9.77441 107.242 9.66699 107.209C9.55957 107.188 9.479 107.156 9.42529 107.113C9.13525 107.038 8.83447 106.984 8.52295 106.952C8.21143 106.919 7.91064 106.833 7.62061 106.694L6.42822 106.227C6.40674 106.205 6.34229 106.184 6.23486 106.162C6.12744 106.13 6.05225 106.114 6.00928 106.114C5.69775 105.706 5.52051 105.501 5.47754 105.501H5.09082C5.00488 105.448 4.90283 105.346 4.78467 105.195C4.67725 105.034 4.56445 104.857 4.44629 104.664C4.44629 104.535 4.37109 104.454 4.2207 104.422C4.08105 104.39 3.95752 104.374 3.8501 104.374C3.78564 104.341 3.74268 104.298 3.72119 104.245C3.69971 104.18 3.67822 104.116 3.65674 104.051C3.646 103.976 3.62988 103.901 3.6084 103.826C3.58691 103.75 3.54932 103.686 3.49561 103.632C3.47412 103.579 3.42041 103.503 3.33447 103.407C3.24854 103.299 3.17871 103.224 3.125 103.181C3.0498 103.138 2.99072 103.106 2.94775 103.084C2.90479 103.063 2.86719 103.047 2.83496 103.036C2.80273 103.015 2.77051 102.988 2.73828 102.956C2.70605 102.913 2.66309 102.848 2.60938 102.762L2.20654 102.15L1.85205 101.763C1.85205 101.387 1.8252 101.124 1.77148 100.974C1.71777 100.823 1.68018 100.743 1.65869 100.732C1.65869 100.689 1.64258 100.598 1.61035 100.458C1.58887 100.308 1.56738 100.222 1.5459 100.2C1.33105 100.104 1.19678 100.034 1.14307 99.9907C1.1001 99.9585 1.06787 99.937 1.04639 99.9263L0.740234 98.4761Z" fill="#D80000"/>
</svg>
